<svg xmlns="http://www.w3.org/2000/svg" version="1.1" xmlns:xlink="http://www.w3.org/1999/xlink" xmlns:svgjs="http://svgjs.com/svgjs" width="1000" height="1000"><rect width="1000" height="1000" rx="0" ry="0" fill="#555555"></rect><g transform="matrix(8.080808080808081,0,0,8.080808080808081,102.5951286747374,429.75535565403976)"><svg xmlns="http://www.w3.org/2000/svg" version="1.1" xmlns:xlink="http://www.w3.org/1999/xlink" xmlns:svgjs="http://svgjs.com/svgjs" width="99" height="17"><svg width="99" height="17" viewBox="0 0 99 17" fill="none" xmlns="http://www.w3.org/2000/svg">
<path d="M0.04 17V0.439999H6.4C10.72 0.439999 12.88 2.608 12.88 6.944V10.496C12.88 14.832 10.72 17 6.4 17H0.04ZM2.968 14.336H6.568C8.824 14.336 9.952 13.208 9.952 10.952V6.488C9.952 4.232 8.824 3.104 6.568 3.104H2.968V14.336ZM16.9497 17V0.439999H19.8777V17H16.9497ZM24.1975 13.088V4.352C24.1975 1.744 25.5015 0.439999 28.1095 0.439999H34.6375L36.0535 1.544V3.104H28.1815C27.4775 3.104 27.1255 3.448 27.1255 4.136V13.304C27.1255 13.992 27.4775 14.336 28.1815 14.336H36.0535V15.896L34.6375 17H28.1095C25.5015 17 24.1975 15.696 24.1975 13.088ZM39.7769 17V0.439999H50.9129V3.104H42.7049V7.088H50.1929V9.752H42.7049V14.336H50.9129V17H39.7769ZM54.6241 17V0.439999H60.9841C65.3041 0.439999 67.4641 2.608 67.4641 6.944V10.496C67.4641 14.832 65.3041 17 60.9841 17H54.6241ZM57.5521 14.336H61.1521C63.4081 14.336 64.5361 13.208 64.5361 10.952V6.488C64.5361 4.232 63.4081 3.104 61.1521 3.104H57.5521V14.336Z" fill="white"></path>
<path d="M70.7718 17V14.66H73.1118V17H70.7718ZM76.0905 14.066V7.514C76.0905 5.558 77.0685 4.58 79.0245 4.58H84.2985L85.3605 5.408V6.578H79.0785C78.5505 6.578 78.2865 6.836 78.2865 7.352V14.228C78.2865 14.744 78.5505 15.002 79.0785 15.002H83.5245V11.564H80.8965V9.566H85.7205V17H79.0245C77.0685 17 76.0905 16.022 76.0905 14.066ZM88.597 14.066V7.514C88.597 5.558 89.575 4.58 91.531 4.58H96.805L97.867 5.408V6.578H91.585C91.057 6.578 90.793 6.836 90.793 7.352V14.228C90.793 14.744 91.057 15.002 91.585 15.002H96.031V11.564H93.403V9.566H98.227V17H91.531C89.575 17 88.597 16.022 88.597 14.066Z" fill="#10E57A"></path>
</svg></svg></g></svg>